<svg width="11" height="11" viewBox="0 0 11 11" fill="none" xmlns="http://www.w3.org/2000/svg">
<path fill-rule="evenodd" clip-rule="evenodd" d="M1.37508 8.25001H3.20841C3.34591 8.25001 3.43758 8.20418 3.52925 8.11251L8.57091 3.07084C8.75425 2.88751 8.75425 2.61251 8.57091 2.42918L6.73758 0.595844C6.55425 0.41251 6.27925 0.41251 6.09591 0.595844L1.05425 5.63751C0.962581 5.72918 0.916748 5.82084 0.916748 5.95834V7.79168C0.916748 8.06668 1.10008 8.25001 1.37508 8.25001ZM1.83341 6.14184L6.41675 1.5585L7.60841 2.75017L3.02508 7.3335H1.83341V6.14184ZM9.62508 10.5417C9.90008 10.5417 10.0834 10.3583 10.0834 10.0833C10.0834 9.80834 9.90008 9.62501 9.62508 9.62501H1.37508C1.10008 9.62501 0.916748 9.80834 0.916748 10.0833C0.916748 10.3583 1.10008 10.5417 1.37508 10.5417H9.62508Z" fill="white"/>
<mask id="mask0_55_16413" style="mask-type:alpha" maskUnits="userSpaceOnUse" x="0" y="0" width="11" height="11">
<path fill-rule="evenodd" clip-rule="evenodd" d="M1.37508 8.25001H3.20841C3.34591 8.25001 3.43758 8.20418 3.52925 8.11251L8.57091 3.07084C8.75425 2.88751 8.75425 2.61251 8.57091 2.42918L6.73758 0.595844C6.55425 0.41251 6.27925 0.41251 6.09591 0.595844L1.05425 5.63751C0.962581 5.72918 0.916748 5.82084 0.916748 5.95834V7.79168C0.916748 8.06668 1.10008 8.25001 1.37508 8.25001ZM1.83341 6.14184L6.41675 1.5585L7.60841 2.75017L3.02508 7.3335H1.83341V6.14184ZM9.62508 10.5417C9.90008 10.5417 10.0834 10.3583 10.0834 10.0833C10.0834 9.80834 9.90008 9.62501 9.62508 9.62501H1.37508C1.10008 9.62501 0.916748 9.80834 0.916748 10.0833C0.916748 10.3583 1.10008 10.5417 1.37508 10.5417H9.62508Z" fill="white"/>
</mask>
<g mask="url(#mask0_55_16413)">
<rect width="11" height="11" fill="white"/>
</g>
</svg>
