<svg width="20" height="20" viewBox="0 0 20 20" fill="none" xmlns="http://www.w3.org/2000/svg">
<path d="M18.4697 19.5303C18.7626 19.8232 19.2374 19.8232 19.5303 19.5303C19.8232 19.2374 19.8232 18.7626 19.5303 18.4697L18.4697 19.5303ZM16.1324 8.94118C16.1324 12.9128 12.9128 16.1324 8.94118 16.1324V17.6324C13.7412 17.6324 17.6324 13.7412 17.6324 8.94118H16.1324ZM8.94118 16.1324C4.9696 16.1324 1.75 12.9128 1.75 8.94118H0.25C0.25 13.7412 4.14117 17.6324 8.94118 17.6324V16.1324ZM1.75 8.94118C1.75 4.9696 4.9696 1.75 8.94118 1.75V0.25C4.14117 0.25 0.25 4.14117 0.25 8.94118H1.75ZM8.94118 1.75C12.9128 1.75 16.1324 4.9696 16.1324 8.94118H17.6324C17.6324 4.14117 13.7412 0.25 8.94118 0.25V1.75ZM19.5303 18.4697L15.0964 14.0358L14.0358 15.0964L18.4697 19.5303L19.5303 18.4697Z" fill="#949CA9"/>
</svg>
